# xmcd
#
# Track frame offsets:
#	150
#	15375
#	30953
#	44800
#	58907
#	75839
#	97346
#	112471
#	123175
#	134187
#	145775
#	157323
#	170762
#	184878
#	199945
#	210690
#
# Disc length: 2977 seconds
#
# Revision: 1
# Processed by: cddbd v1.5.2PL0 Copyright (c) Steve Scherf et al.
# Submitted via: audiograbber 1.83.01
#
DISCID=f70b9f10
DTITLE=Kenny Rogers - Golden Hits 2
DYEAR=1900
DGENRE=Country
TTITLE0=Unforgettable
TTITLE1=When i fall in Love
TTITLE2=Love me Tender
TTITLE3=You are so beautiful
TTITLE4=You decorated my Life
TTITLE5=Have i told you lately that I Love
TTITLE6=I can't help falling in Love
TTITLE7=We all goit to help Eachoter
TTITLE8=Allways LEaving Allways Gone
TTITLE9=Poem From a little Lady
TTITLE10=Me and Bobby McGee
TTITLE11=Shine on Ruby Mountain
TTITLE12=Sunshine
TTITLE13=Tell it all Brother
TTITLE14=She even woke me up to say Goddbye
TTITLE15=As time goes by
EXTD=
EXTT0=
EXTT1=
EXTT2=
EXTT3=
EXTT4=
EXTT5=
EXTT6=
EXTT7=
EXTT8=
EXTT9=
EXTT10=
EXTT11=
EXTT12=
EXTT13=
EXTT14=
EXTT15=
PLAYORDER=
